<svg width="114" height="34" viewBox="0 0 114 34" xmlns="http://www.w3.org/2000/svg"><title>zuppler-logo-dark</title><g id="Page-1" fill="none" fill-rule="evenodd"><g id="zuppler-logo-dark"><path d="M13.225 17.522H5.603l8.5-10.815c.755-.96.086-2.385-1.12-2.385H2.253C1.46 4.322.82 4.978.82 5.79c0 .81.642 1.464 1.436 1.464H9.99L1.49 18.07c-.754.96-.086 2.385 1.12 2.385h10.615c.794 0 1.436-.656 1.436-1.466 0-.813-.64-1.47-1.434-1.47" id="Fill-1" fill="#444"/><path d="M42.745 4.322c-4.36 0-7.897 3.615-7.897 8.067v13.2c0 .807.642 1.464 1.436 1.464.793 0 1.435-.657 1.435-1.466v-6.953c1.37 1.13 3.12 1.824 5.024 1.818 4.362.013 7.898-3.602 7.898-8.066 0-4.453-3.536-8.068-7.898-8.068zm0 13.2c-2.665.01-4.863-2.117-5.026-5.133 0-2.834 2.25-5.133 5.024-5.136 2.776.003 5.026 2.302 5.026 5.134 0 2.842-2.25 5.142-5.025 5.132z" id="Fill-2" fill="#444"/><path d="M31.258 4.322c-.81 0-1.456.656-1.436 1.467-.02.15-.02.15 0 .73-.02 2.26-.02 2.26 0 5.868-.02 2.962-2.23 5.132-5.026 5.132-2.82 0-5.005-2.367-5.025-5.133.02-2.54.02-2.54 0-4.4.02-1.805.02-1.805 0-2.2.02-.812-.625-1.468-1.434-1.468-.788 0-1.436.655-1.436 1.466v6.6c0 4.343 3.433 8.065 7.896 8.065 4.37 0 7.898-3.46 7.898-8.065V5.788c0-.812-.648-1.468-1.436-1.468" id="Fill-3" fill="#444"/><path d="M68.59 12.39c0-4.456-3.535-8.068-7.896-8.068-4.362 0-7.898 3.612-7.898 8.067 0 .127.013.26.017.39 0 .028-.005.054-.003.08.002.038.01.073.012.11.023.46.063.928.14 1.4.434 2.67 1.67 5.45 3.454 8.244.77 1.21 1.596 2.34 2.422 3.362.29.36.56.68.803.96.15.172.26.293.323.36.546.588 1.454.614 2.03.057.576-.558.6-1.486.054-2.074l-.26-.294c-.22-.252-.465-.545-.73-.874-.763-.945-1.525-1.99-2.235-3.1-.205-.324-.402-.646-.59-.967.776.26 1.603.41 2.464.41 4.36 0 7.897-3.612 7.897-8.067zm-12.905.376c-.006-.126-.017-.254-.017-.377 0-2.837 2.25-5.136 5.026-5.136 2.775 0 5.025 2.3 5.025 5.134 0 2.834-2.25 5.132-5.027 5.132-2.64 0-4.82-2.088-5.01-4.756z" id="Fill-4" fill="#E4732B"/><path d="M75.053 20.455h-.718V2.122C74.24 1.317 73.618.655 72.9.655c-.816 0-1.437.662-1.437 1.467v19.8c0 .805.62 1.467 1.436 1.467h2.152c.815 0 1.436-.664 1.436-1.47 0-.825-.622-1.486-1.437-1.466" id="Fill-5" fill="#E4732B"/><path d="M83.637 26.734c-.553-.58-1.462-.592-2.03-.027-.874.87-1.786 1.59-2.735 2.17-3.52 2.16-7.278 2.34-10.767 1.338-.43-.123-.81-.254-1.138-.383-.187-.074-.308-.127-.357-.15-.715-.35-1.572-.038-1.913.694-.34.73-.036 1.606.68 1.954.39.19 1.055.452 1.95.71 4.187 1.2 8.736.984 13.024-1.647 1.14-.7 2.23-1.558 3.26-2.585.57-.565.58-1.494.028-2.074" id="Fill-6" fill="#E4732B"/><path d="M85.104 4.322c-4.36 0-7.897 3.612-7.897 8.067 0 4.453 3.536 8.064 7.897 8.064.793 0 1.436-.656 1.436-1.466 0-.812-.643-1.468-1.436-1.468-2.277 0-4.196-1.547-4.814-3.667h11.276c.793 0 1.436-.656 1.436-1.466 0-4.456-3.536-8.068-7.898-8.068zm0 2.933c2.277 0 4.197 1.547 4.815 3.667h-9.63c.617-2.12 2.536-3.667 4.813-3.667z" id="Fill-7" fill="#E4732B"/><path d="M105.573 5.107c-2.85-.725-5.594-.065-7.546 1.583v-.9c0-.812-.642-1.468-1.436-1.468-.79 0-1.434.656-1.434 1.467v13.2c0 .81.643 1.464 1.436 1.464.795 0 1.437-.656 1.437-1.466v-5.55c.02-.096.03-.196.03-.3 0-3.844 3.18-6.112 6.822-5.187.77.197 1.55-.282 1.74-1.07.19-.784-.278-1.58-1.047-1.775" id="Fill-8" fill="#444"/><path d="M109.6 6.522v-1.83h-.804v-.37h2.154v.37h-.802v1.83h-.547" id="Fill-9" fill="#444"/><path d="M110.95 6.522v-2.2h.674l.405 1.5.4-1.5h.673v2.2h-.418V4.79l-.442 1.732h-.434l-.44-1.733v1.73h-.42" id="Fill-10" fill="#444"/></g></g></svg>