<?xml version="1.0" encoding="UTF-8" standalone="no"?>
<svg width="114px" height="34px" viewBox="0 0 114 34" version="1.1" xmlns="http://www.w3.org/2000/svg" xmlns:xlink="http://www.w3.org/1999/xlink" xmlns:sketch="http://www.bohemiancoding.com/sketch/ns">
    <!-- Generator: Sketch 3.0.1 (7597) - http://www.bohemiancoding.com/sketch -->
    <title>zuppler-logo-neutral-light</title>
    <description>Created with Sketch.</description>
    <defs></defs>
    <g id="Page-1" stroke="none" stroke-width="1" fill="none" fill-rule="evenodd" sketch:type="MSPage">
        <g id="zuppler-logo-neutral-light" sketch:type="MSLayerGroup" transform="translate(1.000000, 1.000000)" fill="#FFFFFF">
            <path d="M12.2252308,16.522 L4.60348718,16.522 L13.1032821,5.7068 C13.8578462,4.74686667 13.1894359,3.322 11.984,3.322 L1.25282051,3.322 C0.459487179,3.322 -0.183076923,3.97833333 -0.183076923,4.78866667 C-0.183076923,5.599 0.459487179,6.25533333 1.25282051,6.25533333 L8.99015385,6.25533333 L0.489641026,17.0705333 C-0.264205128,18.0304667 0.404205128,19.4553333 1.60964103,19.4553333 L12.2252308,19.4553333 C13.0185641,19.4553333 13.6611282,18.799 13.6611282,17.9886667 C13.6611282,17.1783333 13.0185641,16.522 12.2252308,16.522" id="Fill-1" fill-opacity="0.401183197" sketch:type="MSShapeGroup"></path>
            <path d="M41.7451282,3.322 C37.3835897,3.322 33.8476923,6.9366 33.8476923,11.3886667 L33.8476923,24.5886667 C33.8476923,25.3982667 34.4902564,26.0553333 35.2835897,26.0553333 C36.0769231,26.0553333 36.7194872,25.3982667 36.7194872,24.5886667 L36.7194872,17.6366667 C38.0893333,18.7667333 39.8389744,19.4612 41.7451282,19.4553333 C46.1066667,19.4678 49.6425641,15.8532 49.6425641,11.3886667 C49.6425641,6.9366 46.1066667,3.322 41.7451282,3.322 L41.7451282,3.322 Z M41.7451282,16.522 C39.0801026,16.5322667 36.8817436,14.4048667 36.7194872,11.3886667 C36.7194872,8.55726667 38.9695385,6.25753333 41.7451282,6.25533333 C44.5207179,6.25753333 46.7707692,8.55726667 46.7707692,11.3886667 C46.7707692,14.2318 44.5207179,16.5322667 41.7451282,16.522 L41.7451282,16.522 Z" id="Fill-2" fill-opacity="0.401183197" sketch:type="MSShapeGroup"></path>
            <path d="M30.2579487,3.322 C29.4488205,3.322 28.8019487,3.97833333 28.8220513,4.78866667 C28.8019487,4.9412 28.8019487,4.9412 28.8220513,5.522 C28.8019487,7.77993333 28.8019487,7.77993333 28.8220513,11.3886667 C28.8019487,14.3520667 26.5906667,16.522 23.7964103,16.522 C20.9748718,16.522 18.7908718,14.1548 18.7707692,11.3886667 C18.7908718,8.8506 18.7908718,8.8506 18.7707692,6.98866667 C18.7908718,5.1854 18.7908718,5.1854 18.7707692,4.78866667 C18.7908718,3.97833333 18.144,3.322 17.3348718,3.322 C16.5465641,3.322 15.8989744,3.97833333 15.8989744,4.78866667 L15.8989744,11.3886667 C15.8989744,15.7329333 19.3329231,19.4553333 23.7964103,19.4553333 C28.1672821,19.4553333 31.6938462,15.994 31.6938462,11.3886667 L31.6938462,5.522 L31.6938462,4.78866667 C31.6938462,3.97833333 31.0462564,3.322 30.2579487,3.322" id="Fill-3" fill-opacity="0.401183197" sketch:type="MSShapeGroup"></path>
            <path d="M67.5912821,11.3886667 C67.5912821,6.93366667 64.0553846,3.322 59.6938462,3.322 C55.3323077,3.322 51.7964103,6.93366667 51.7964103,11.3886667 C51.7964103,11.5184667 51.8086154,11.6504667 51.8129231,11.7817333 C51.8129231,11.8088667 51.8078974,11.8345333 51.8100513,11.8624 C51.8122051,11.8990667 51.8186667,11.9342667 51.8215385,11.9716667 C51.8445128,12.4329333 51.8854359,12.8986 51.9622564,13.3723333 C52.3958974,16.0424 53.6322051,18.8232 55.4155897,21.615 C56.1873846,22.8235333 57.0123077,23.9536 57.8379487,24.9773333 C58.1272821,25.3366667 58.3972308,25.6578667 58.6406154,25.9372667 C58.7899487,26.1088667 58.8990769,26.2298667 58.9622564,26.2980667 C59.5078974,26.8854667 60.4161026,26.9111333 60.9918974,26.3538 C61.5676923,25.7964667 61.5921026,24.8680667 61.0464615,24.2799333 C61.0041026,24.2337333 60.9150769,24.1347333 60.7858462,23.9873333 C60.5661538,23.7350667 60.3206154,23.4424667 60.0549744,23.1132 C59.2932308,22.1679333 58.5307692,21.1229333 57.8207179,20.0126667 C57.6146667,19.6892667 57.4179487,19.3673333 57.2291282,19.0461333 C58.0059487,19.3072 58.8330256,19.4553333 59.6938462,19.4553333 C64.0553846,19.4553333 67.5912821,15.8436667 67.5912821,11.3886667 L67.5912821,11.3886667 Z M54.6847179,11.7663333 C54.6789744,11.6402 54.6682051,11.5118667 54.6682051,11.3886667 C54.6682051,8.5536 56.9182564,6.25533333 59.6938462,6.25533333 C62.4694359,6.25533333 64.7194872,8.5536 64.7194872,11.3886667 C64.7194872,14.2237333 62.4694359,16.522 59.6938462,16.522 C57.0532308,16.522 54.8742564,14.4342 54.6847179,11.7663333 L54.6847179,11.7663333 Z" id="Fill-4" fill-opacity="0.7" sketch:type="MSShapeGroup"></path>
            <path d="M74.0528205,19.4553333 L73.3348718,19.4553333 L73.3348718,1.122 C73.2386667,0.3168 72.617641,-0.344666667 71.8989744,-0.344666667 C71.0841026,-0.344666667 70.4630769,0.3168 70.4630769,1.122 L70.4630769,20.922 C70.4630769,21.7272 71.0841026,22.3886667 71.8989744,22.3886667 L74.0528205,22.3886667 C74.8676923,22.3886667 75.4887179,21.7272 75.4887179,20.922 C75.4887179,20.0962667 74.8676923,19.4348 74.0528205,19.4553333" id="Fill-5" fill-opacity="0.7" sketch:type="MSShapeGroup"></path>
            <path d="M82.6373333,25.7341333 C82.0837949,25.1540667 81.1748718,25.1416 80.6069744,25.707 C79.7332308,26.5767333 78.8207179,27.2968667 77.8723077,27.8784 C74.3529231,30.0373333 70.5944615,30.2155333 67.1045128,29.2152667 C66.6758974,29.0920667 66.2946667,28.9608 65.9665641,28.8317333 C65.7798974,28.7576667 65.6592821,28.7048667 65.6104615,28.6814 C64.8946667,28.3330667 64.0381538,28.644 63.6971282,29.3758667 C63.3568205,30.107 63.6612308,30.9818667 64.3770256,31.3302 C64.7668718,31.5194 65.4324103,31.7819333 66.3284103,32.0393333 C70.5140513,33.2398 75.0629744,33.0242 79.3512821,30.393 C80.4899487,29.6941333 81.5790769,28.8346667 82.6107692,27.808 C83.1786667,27.2433333 83.1908718,26.3142 82.6373333,25.7341333" id="Fill-6" fill-opacity="0.7" sketch:type="MSShapeGroup"></path>
            <path d="M84.1041026,3.322 C79.7425641,3.322 76.2066667,6.93366667 76.2066667,11.3886667 C76.2066667,15.8436667 79.7425641,19.4553333 84.1041026,19.4553333 C84.8974359,19.4553333 85.54,18.799 85.54,17.9886667 C85.54,17.1783333 84.8974359,16.522 84.1041026,16.522 C81.8274872,16.522 79.9076923,14.9754 79.2895385,12.8553333 L90.565641,12.8553333 C91.3589744,12.8553333 92.0015385,12.199 92.0015385,11.3886667 C92.0015385,6.93366667 88.465641,3.322 84.1041026,3.322 L84.1041026,3.322 Z M84.1041026,6.25533333 C86.3807179,6.25533333 88.3005128,7.80193333 88.9186667,9.922 L79.2895385,9.922 C79.9076923,7.80193333 81.8274872,6.25533333 84.1041026,6.25533333 L84.1041026,6.25533333 Z" id="Fill-7" fill-opacity="0.7" sketch:type="MSShapeGroup"></path>
            <path d="M104.572821,4.10666667 C101.723282,3.38213333 98.9785641,4.04213333 97.0271795,5.68993333 L97.0271795,4.78866667 C97.0271795,3.97833333 96.3846154,3.322 95.5912821,3.322 C94.7979487,3.322 94.1553846,3.97833333 94.1553846,4.78866667 L94.1553846,17.9886667 C94.1553846,18.799 94.7979487,19.4553333 95.5912821,19.4553333 C96.3846154,19.4553333 97.0271795,18.799 97.0271795,17.9886667 L97.0271795,12.4402667 C97.0465641,12.3442 97.0573333,12.2437333 97.0573333,12.1410667 C97.0573333,8.2962 100.239282,6.028 103.88,6.95346667 C104.649641,7.14853333 105.428615,6.66966667 105.61959,5.88426667 C105.811282,5.09813333 105.342462,4.30246667 104.572821,4.10666667" id="Fill-8" fill-opacity="0.401183197" sketch:type="MSShapeGroup"></path>
            <path d="M108.600513,5.522 L108.600513,3.69306667 L107.79641,3.69306667 L107.79641,3.322 L109.950256,3.322 L109.950256,3.69306667 L109.14759,3.69306667 L109.14759,5.522 L108.600513,5.522" id="Fill-9" fill-opacity="0.401183197" sketch:type="MSShapeGroup"></path>
            <path d="M109.950256,5.522 L109.950256,3.322 L110.62441,3.322 L111.029333,4.82313333 L111.429231,3.322 L112.104103,3.322 L112.104103,5.522 L111.686256,5.522 L111.686256,3.78913333 L111.244,5.522 L110.810359,5.522 L110.368821,3.78913333 L110.368821,5.522 L109.950256,5.522" id="Fill-10" fill-opacity="0.401183197" sketch:type="MSShapeGroup"></path>
        </g>
    </g>
</svg>